<?xml version="1.0" standalone="no"?>
<!DOCTYPE svg PUBLIC "-//W3C//DTD SVG 20010904//EN"
 "http://www.w3.org/TR/2001/REC-SVG-20010904/DTD/svg10.dtd">
<svg version="1.0" xmlns="http://www.w3.org/2000/svg"
 width="128.000000pt" height="128.000000pt" viewBox="0 0 128.000000 128.000000"
 preserveAspectRatio="xMidYMid meet">

<g transform="translate(0.000000,128.000000) scale(0.100000,-0.100000)"
fill="#000000" stroke="none">
<path d="M424 1261 c-23 -10 -54 -35 -68 -54 -15 -20 -43 -45 -62 -56 -40 -24
-74 -75 -74 -113 0 -16 -9 -34 -24 -46 -13 -10 -36 -36 -51 -58 -23 -34 -26
-47 -23 -101 2 -45 -1 -66 -13 -80 -9 -10 -22 -28 -28 -40 -15 -30 -13 -123 3
-153 12 -21 12 -29 -1 -54 -21 -41 -14 -133 15 -173 13 -18 22 -46 22 -68 0
-20 7 -49 14 -64 23 -43 81 -89 123 -97 22 -4 46 -18 61 -36 71 -84 199 -88
282 -7 l40 39 40 -39 c83 -81 211 -77 282 7 15 18 39 32 61 36 71 13 137 94
137 167 0 17 10 45 22 62 29 40 36 132 15 173 -13 25 -13 33 -1 54 16 30 18
123 3 153 -6 12 -19 30 -28 40 -12 14 -15 35 -13 80 3 54 0 67 -23 101 -15 22
-38 48 -51 58 -15 12 -24 30 -24 46 0 37 -34 89 -73 112 -19 11 -48 38 -65 59
-45 56 -108 79 -171 62 -26 -7 -60 -26 -78 -44 l-33 -31 -32 31 c-34 31 -84
53 -122 53 -12 0 -40 -9 -62 -19z m117 -46 c56 -29 69 -66 69 -194 0 -110 -1
-113 -21 -108 -54 14 -68 -31 -16 -54 l32 -14 3 -247 2 -248 -35 24 c-41 28
-112 43 -127 28 -17 -17 -1 -41 29 -47 81 -16 133 -75 133 -148 0 -147 -171
-209 -262 -96 -21 26 -39 39 -55 39 -64 0 -123 60 -123 126 0 30 -8 55 -25 80
-26 38 -35 117 -15 129 5 3 23 -1 39 -10 17 -8 44 -15 61 -15 27 0 31 3 28 22
-2 16 -12 24 -38 29 -21 5 -48 21 -67 43 -28 30 -33 43 -33 86 0 40 5 55 29
82 27 32 29 37 24 101 l-6 67 40 40 c35 34 47 40 83 40 34 0 48 -6 75 -33 18
-18 38 -52 44 -75 9 -30 17 -42 30 -42 35 0 34 46 -3 118 -20 38 -91 82 -134
82 -42 0 -43 30 -3 71 33 33 84 39 117 14 39 -30 80 -10 49 25 -9 10 -30 24
-46 30 -33 14 -30 24 15 51 38 23 67 24 107 4z m292 2 c18 -8 38 -21 45 -30
12 -14 10 -17 -11 -22 -31 -8 -71 -50 -62 -64 9 -15 27 -14 64 5 42 21 94 11
121 -23 31 -40 27 -63 -13 -63 -68 0 -135 -59 -156 -137 -12 -42 -5 -63 20
-63 13 0 21 11 29 39 13 49 41 85 79 101 97 40 191 -69 152 -173 -8 -20 -6
-29 11 -43 29 -27 48 -68 48 -104 0 -57 -43 -115 -94 -126 -40 -8 -56 -22 -49
-40 7 -19 57 -18 95 2 25 13 32 14 39 2 17 -26 9 -83 -16 -120 -16 -23 -25
-51 -25 -75 0 -70 -62 -133 -129 -133 -11 0 -32 -16 -46 -34 -88 -116 -265
-55 -265 91 0 73 52 132 133 148 30 6 46 30 29 47 -15 15 -86 0 -127 -28 l-35
-24 2 248 3 247 33 14 c51 23 37 68 -17 54 -20 -5 -21 -2 -21 106 0 126 10
156 62 190 39 24 57 26 101 8z"/>
<path d="M494 1055 c-4 -9 -2 -21 4 -27 15 -15 44 -1 40 19 -4 23 -36 29 -44
8z"/>
<path d="M270 825 c0 -20 7 -49 15 -64 18 -35 69 -79 101 -87 19 -5 22 -9 14
-24 -5 -10 -26 -24 -45 -30 -23 -8 -35 -18 -35 -30 0 -52 117 -8 135 51 4 10
25 27 48 37 51 23 69 42 57 62 -8 13 -14 13 -42 1 -106 -44 -181 -10 -202 92
-5 18 -13 27 -26 27 -16 0 -20 -7 -20 -35z"/>
<path d="M424 496 c-51 -16 -95 -48 -118 -87 -32 -54 9 -69 51 -19 30 36 64
55 115 64 38 7 54 26 35 45 -14 14 -31 13 -83 -3z"/>
<path d="M277 303 c-19 -18 -5 -41 28 -47 44 -9 92 -56 105 -106 12 -46 27
-58 46 -39 16 16 6 75 -20 114 -33 51 -136 102 -159 78z"/>
<path d="M744 1055 c-4 -9 -2 -21 4 -27 15 -15 44 -1 40 19 -4 23 -36 29 -44
8z"/>
<path d="M964 833 c-25 -103 -97 -136 -202 -92 -28 12 -34 12 -42 -1 -12 -20
6 -39 57 -62 23 -10 44 -27 48 -37 12 -40 88 -86 123 -74 26 9 12 41 -23 53
-19 6 -39 19 -44 29 -8 14 -4 20 24 30 61 22 126 122 108 167 -9 25 -42 16
-49 -13z"/>
<path d="M773 499 c-19 -19 -3 -38 35 -45 51 -9 85 -28 116 -64 27 -33 58 -37
64 -9 5 27 -75 97 -131 114 -61 18 -70 18 -84 4z"/>
<path d="M925 294 c-60 -31 -92 -71 -106 -132 -9 -43 -2 -62 22 -62 12 0 21 9
24 28 15 71 50 111 110 126 35 9 48 25 33 43 -14 17 -46 16 -83 -3z"/>
</g>
</svg>
